#!OML:ASF F:\VICON\USERDATA\INSTALL\rory3\rory3.ASF
:FULLY-SPECIFIED
:DEGREES
123
root 1.0093 17.6905 -16.5939 6.7505 0.716084 -0.966383
lowerback 16.3005 -0.382419 -0.125274
upperback 1.68539 -0.333265 2.44455
thorax -7.32731 -0.120148 2.76072
lowerneck -24.7803 -4.95902 -9.03738
upperneck 8.90969 -4.89551 7.542
head 7.10155 -1.96755 3.31171
rclavicle 1.59028e-015 -3.49861e-014
rhumerus -29.591 -11.9331 -75.8765
rradius 29.7693
rwrist 13.2307
rhand -16.333 16.3725
rfingers 7.12502
rthumb 9.87893 -13.3757
lclavicle 1.59028e-015 -3.49861e-014
lhumerus -23.6827 8.08838 84.5708
lradius 26.3872
lwrist -12.1672
lhand -16.0524 26.2643
lfingers 7.12502
lthumb 10.1496 55.9995
rfemur -26.1002 -3.38697 23.0391
rtibia 45.227
rfoot -5.75016 -9.47916
rtoes -11.0254
lfemur -28.6347 3.40693 -18.2636
ltibia 46.7294
lfoot -6.37354 -8.75226
ltoes -17.6016
124
root 1.01313 17.9834 -16.5607 6.91332 0.646274 -1.10266
lowerback 15.7162 -0.412397 -0.0167227
upperback 1.42825 -0.347489 2.56309
thorax -7.28013 -0.127473 2.82265
lowerneck -24.5752 -4.8935 -9.21726
upperneck 9.25971 -4.76708 7.43194
head 7.17572 -1.92819 3.32339
rclavicle 1.19271e-015 4.37326e-015
rhumerus -30.1213 -11.7837 -75.6299
rradius 29.5873
rwrist 13.0894
rhand -16.1165 16.3282
rfingers 7.12502
rthumb 10.0878 -13.41
lclavicle 1.19271e-015 4.37326e-015
lhumerus -24.2733 8.40162 84.5331
lradius 26.5078
lwrist -12.6487
lhand -15.5658 25.983
lfingers 7.12502
lthumb 10.6191 55.6947
rfemur -24.725 -3.14734 22.953
rtibia 41.9244
rfoot -1.86938 -8.28819
rtoes -9.53548
lfemur -27.3492 3.08268 -17.9728
ltibia 43.426
lfoot -1.91169 -9.42849
ltoes -18.7145
125
root 1.01696 18.2731 -16.5283 7.14625 0.513325 -1.1921
lowerback 15.016 -0.408017 0.0422923
upperback 1.25855 -0.334178 2.62644
thorax -7.07439 -0.122888 2.84357
lowerneck -24.6533 -4.84287 -9.18693
upperneck 9.61218 -4.6836 7.22509
head 7.29054 -1.90632 3.26099
rclavicle -6.75868e-015 -4.77083e-015
rhumerus -30.4883 -11.7628 -75.4914
rradius 29.4358
rwrist 13.1372
rhand -15.366 15.0477
rfingers 7.12502
rthumb 10.8117 -14.654
lclavicle -6.75868e-015 -4.77083e-015
lhumerus -24.6554 8.12824 84.5606
lradius 26.5405
lwrist -12.1267
lhand -15.1765 26.5287
lfingers 7.12502
lthumb 10.9946 56.2208
rfemur -23.4743 -2.73093 22.7837
rtibia 38.6153
rfoot 2.36003 -7.45549
rtoes -7.91018
lfemur -26.165 2.72988 -17.7051
ltibia 40.0596
lfoot 3.22913 -9.84176
ltoes -18.8074
126
root 1.02337 18.5661 -16.4907 7.37453 0.409813 -1.11295
lowerback 14.3208 -0.347417 0.084719
upperback 1.13197 -0.260857 2.55437
thorax -6.827 -0.0911535 2.7169
lowerneck -24.8792 -4.827 -9.30072
upperneck 9.80495 -4.63784 7.37881
head 7.39347 -1.86985 3.33753
rclavicle -4.57205e-015 -1.19271e-015
rhumerus -30.8273 -12.0895 -75.3476
rradius 29.158
rwrist 13.1932
rhand -15.2454 15.1521
rfingers 7.12502
rthumb 10.9281 -14.5435
lclavicle -4.57205e-015 -1.19271e-015
lhumerus -24.9062 7.573 84.5708
lradius 26.4227
lwrist -11.5148
lhand -15.2383 26.1376
lfingers 7.12502
lthumb 10.9349 55.8329
rfemur -22.2771 -2.25872 22.3611
rtibia 35.3253
rfoot 6.77339 -7.18297
rtoes -5.14936
lfemur -24.9291 2.18077 -17.5862
ltibia 36.6229
lfoot 8.9564 -9.67192
ltoes -17.5046
127
root 1.02963 18.8532 -16.4538 7.53258 0.374784 -0.957905
lowerback 13.7791 -0.276939 0.136992
upperback 0.983576 -0.174574 2.41692
thorax -6.68774 -0.0530435 2.51739
lowerneck -25.1039 -4.81486 -9.31197
upperneck 9.82861 -4.61803 7.50298
head 7.43876 -1.84386 3.38357
rclavicle 1.25234e-014 -4.37326e-015
rhumerus -31.2895 -12.3814 -75.2398
rradius 29.0877
rwrist 13.0395
rhand -15.2379 15.208
rfingers 7.12502
rthumb 10.9353 -14.4873
lclavicle 1.25234e-014 -4.37326e-015
lhumerus -25.3077 7.09328 84.4662
lradius 26.506
lwrist -11.3392
lhand -14.9353 25.5381
lfingers 7.12502
lthumb 11.2272 55.2176
rfemur -21.1006 -1.76112 21.8267
rtibia 32.0803
rfoot 11.4627 -7.42841
rtoes -2.08198
lfemur -23.7177 1.47849 -17.5346
ltibia 33.1946
lfoot 14.6359 -8.71435
ltoes -15.777
128
root 1.03186 19.1337 -16.4168 7.56538 0.361125 -0.82333
lowerback 13.2266 -0.210642 0.109808
upperback 0.900384 -0.102977 2.33962
thorax -6.47085 -0.0195988 2.43045
lowerneck -24.8907 -4.81624 -9.21152
upperneck 9.47357 -4.63188 7.3582
head 7.28148 -1.86398 3.31556
rclavicle -3.37934e-015 2.82274e-014
rhumerus -31.7898 -12.4088 -75.1394
rradius 29.2236
rwrist 12.7557
rhand -15.0261 14.8141
rfingers 7.12502
rthumb 11.1396 -14.8702
lclavicle -3.37934e-015 2.82274e-014
lhumerus -25.8384 6.52317 84.4415
lradius 26.9249
lwrist -11.0484
lhand -14.4014 25.3817
lfingers 7.12502
lthumb 11.742 55.0326
rfemur -19.8252 -1.0887 21.3297
rtibia 28.9044
rfoot 16.1981 -8.19133
rtoes -1.2622
lfemur -22.4695 0.532783 -17.3979
ltibia 29.8672
lfoot 19.7102 -6.83449
ltoes -12.6727
129
root 1.03605 19.4072 -16.3744 7.66944 0.41223 -0.788958
lowerback 12.4241 -0.170065 0.188683
upperback 0.867232 -0.0513793 2.31009
thorax -6.05974 0.000507545 2.33553
lowerneck -24.6464 -4.84532 -9.12859
upperneck 9.3193 -4.68565 7.18803
head 7.18958 -1.90731 3.23782
rclavicle 6.55989e-015 -8.34896e-015
rhumerus -32.2449 -12.3807 -75.0204
rradius 29.3167
rwrist 12.5914
rhand -14.5866 14.0651
rfingers 7.12502
rthumb 11.5635 -15.5959
lclavicle 6.55989e-015 -8.34896e-015
lhumerus -26.153 6.05958 84.4603
lradius 27.2382
lwrist -10.7686
lhand -14.0934 25.2493
lfingers 7.12502
lthumb 12.0391 54.883
rfemur -18.645 -0.368855 20.964
rtibia 25.9133
rfoot 20.5066 -9.9099
rtoes 1.93719
lfemur -21.3511 -0.589633 -17.1247
ltibia 26.8734
lfoot 23.7634 -4.848
ltoes -8.99421
130
root 1.04545 19.6669 -16.3325 7.79508 0.480223 -0.703615
lowerback 11.7014 -0.172576 0.335381
upperback 0.755634 -0.0509317 2.20177
thorax -5.77363 -0.0056164 2.13127
lowerneck -24.5852 -4.84015 -9.02243
upperneck 9.6303 -4.71863 7.10175
head 7.28135 -1.92909 3.18862
rclavicle -2.18663e-015 2.54444e-014
rhumerus -32.9363 -12.1532 -75.0439
rradius 29.6196
rwrist 12.4595
rhand -14.3909 13.4312
rfingers 7.12502
rthumb 11.7522 -16.2192
lclavicle -2.18663e-015 2.54444e-014
lhumerus -26.5366 5.68506 84.3385
lradius 27.495
lwrist -10.4711
lhand -13.3557 25.9862
lfingers 7.12502
lthumb 12.7503 55.5769
rfemur -17.5951 0.0730295 20.5969
rtibia 23.2737
rfoot 23.4784 -12.2693
rtoes 9.32215
lfemur -20.4184 -1.70391 -16.9716
ltibia 24.4629
lfoot 26.5068 -3.54661
ltoes -6.89551
131
root 1.0485 19.9106 -16.2951 7.91888 0.486055 -0.758472
lowerback 11.1705 -0.19705 0.475103
upperback 0.525556 -0.0715299 2.1725
thorax -5.71842 -0.0191389 2.02169
lowerneck -24.3938 -4.76641 -9.06527
upperneck 9.93081 -4.65377 7.20164
head 7.35076 -1.89456 3.24079
rclavicle 4.57205e-015 -9.14409e-015
rhumerus -33.7318 -11.4597 -75.226
rradius 30.0903
rwrist 12.0167
rhand -14.5626 13.2447
rfingers 7.12502
rthumb 11.5866 -16.415
lclavicle 4.57205e-015 -9.14409e-015
lhumerus -27.3126 5.06208 84.2421
lradius 28.014
lwrist -9.62377
lhand -12.61 27.0678
lfingers 7.12502
lthumb 13.4691 56.6123
rfemur -16.7211 0.307216 20.5093
rtibia 21.1685
rfoot 24.4111 -14.6296
rtoes 14.0845
lfemur -19.7927 -2.44215 -16.7443
ltibia 22.7625
lfoot 27.8915 -2.69157
ltoes -5.25636
132
root 1.04791 20.1374 -16.2659 8.08745 0.367454 -0.862388
lowerback 10.5032 -0.177904 0.588755
upperback 0.401977 -0.0417388 2.17781
thorax -5.47515 -0.0079272 1.95303
lowerneck -24.1901 -4.71956 -9.19782
upperneck 10.0737 -4.59679 7.33914
head 7.36916 -1.86384 3.31844
rclavicle -6.85807e-015 1.74931e-014
rhumerus -34.1853 -10.527 -75.5397
rradius 30.5332
rwrist 11.2407
rhand -14.6142 13.0181
rfingers 7.12502
rthumb 11.5368 -16.6444
lclavicle -6.85807e-015 1.74931e-014
lhumerus -27.9022 4.17734 84.2579
lradius 28.5586
lwrist -8.20561
lhand -12.4822 27.2484
lfingers 7.12502
lthumb 13.5923 56.7846
rfemur -16.1597 0.435478 20.5696
rtibia 19.7495
rfoot 24.1401 -16.5713
rtoes 13.6404
lfemur -19.4143 -2.72283 -16.5705
ltibia 21.666
lfoot 27.6775 -1.91596
ltoes -3.5714
133
root 1.04894 20.3507 -16.2529 8.19653 0.339047 -0.849986
lowerback 9.87898 -0.156948 0.679829
upperback 0.382972 -0.018847 2.11373
thorax -5.14532 -0.000646671 1.82567
lowerneck -23.8874 -4.77665 -9.24841
upperneck 10.0919 -4.69615 7.39378
head 7.33921 -1.91418 3.33307
rclavicle -2.98177e-015 -7.15625e-015
rhumerus -34.5859 -9.59326 -75.8758
rradius 31.0942
rwrist 10.398
rhand -14.6886 13.4325
rfingers 7.12502
rthumb 11.4651 -16.234
lclavicle -2.98177e-015 -7.15625e-015
lhumerus -28.2943 3.41178 84.2045
lradius 29.0177
lwrist -6.99033
lhand -12.3404 26.513
lfingers 7.12502
lthumb 13.7289 56.0401
rfemur -15.8234 0.405161 20.5305
rtibia 18.9776
rfoot 23.5426 -18.5912
rtoes 14.094
lfemur -19.1701 -2.60527 -16.6475
ltibia 21.0604
lfoot 26.4695 -1.35441
ltoes -3.44233
